# xmcd
#
# Track frame offsets: 
#        150
#        19639
#        38951
#        59237
#        78240
#        97406
#        117566
#        133925
#        150716
#        167867
#        190878
#
# Disc length: 2824 seconds
#
# Revision: 1
# Processed by: cddbd v1.5.2PL0 Copyright (c) Steve Scherf et al.
# Submitted via: ExactAudioCopy v0.99pb5
#
DISCID=a00b060b
DTITLE=El Chaval - Ya Me Canse
DYEAR=2007
DGENRE=Bachata
TTITLE0=Amor Gitano
TTITLE1=Te Burlaste De Mi
TTITLE2=Donde Estan Esos Amigos
TTITLE3=Ella Con El
TTITLE4=Ya Me Canse
TTITLE5=Ni Un Recuerdo De Ti
TTITLE6=Lo Mas Dificil
TTITLE7=Noche De Pasion
TTITLE8=Si Me Dices Adios
TTITLE9=Cumple Años Infeliz
TTITLE10=Ya No Creo En El Amor
EXTD=
EXTT0=
EXTT1=
EXTT2=
EXTT3=
EXTT4=
EXTT5=
EXTT6=
EXTT7=
EXTT8=
EXTT9=
EXTT10=
PLAYORDER=
